{
  "accessors": [
    {
      "bufferView": 0,
      "componentType": 5126,
      "count": 54696,
      "type": "VEC3",
      "max": [
        1085.9482421875,
        1130.476806640625,
        336.3431701660156
      ],
      "min": [
        -1085.9482421875,
        -1130.476806640625,
        -579.3359375
      ]
    },
    {
      "bufferView": 1,
      "componentType": 5126,
      "count": 54696,
      "type": "VEC2",
      "max": [
        0.49160099029541016,
        0.8514509797096252
      ],
      "min": [
        0.006417000200599432,
        0.2554680109024048
      ]
    }
  ],
  "asset": {
    "generator": "Cout970\u0027s Modeler glTF v2 Exporter",
    "version": "2.0"
  },
  "buffers": [
    {
      "uri": "warehouse.bin",
      "byteLength": 1093920
    }
  ],
  "bufferViews": [
    {
      "buffer": 0,
      "byteLength": 656352,
      "target": 34962
    },
    {
      "buffer": 0,
      "byteOffset": 656352,
      "byteLength": 437568,
      "target": 34962
    }
  ],
  "images": [
    {
      "uri": "warehouse_tex2.png"
    }
  ],
  "materials": [
    {
      "pbrMetallicRoughness": {
        "baseColorFactor": [
          1.0,
          1.0,
          1.0,
          1.0
        ],
        "baseColorTexture": {
          "index": 0,
          "texCoord": 0
        },
        "metallicFactor": 1.0,
        "roughnessFactor": 1.0
      },
      "alphaMode": "MASK",
      "alphaCutoff": 0.5,
      "doubleSided": false
    }
  ],
  "meshes": [
    {
      "primitives": [
        {
          "attributes": {
            "POSITION": 0,
            "TEXCOORD_0": 1
          },
          "material": 0,
          "mode": 4
        }
      ]
    }
  ],
  "nodes": [
    {
      "mesh": 0,
      "rotation": [
        0.7071068,
        0.0,
        0.0,
        0.7071067
      ],
      "scale": [
        0.014999999664723873,
        0.014999999664723873,
        0.014999999664723873
      ],
      "translation": [
        0.5625,
        4.375,
        0.6875
      ],
      "name": "SM_Bld_Warehouse_01"
    },
    {
      "children": [
        0
      ],
      "name": "root"
    }
  ],
  "samplers": [
    {
      "magFilter": 9728,
      "minFilter": 9728,
      "wrapS": 10497,
      "wrapT": 10497,
      "name": "pixelated"
    }
  ],
  "scene": 0,
  "scenes": [
    {
      "nodes": [
        1
      ]
    }
  ],
  "textures": [
    {
      "sampler": 0,
      "source": 0
    }
  ]
}