{
  "accessors": [
    {
      "bufferView": 0,
      "componentType": 5126,
      "count": 46500,
      "type": "VEC3",
      "max": [
        102.54859924316406,
        236.81422424316406,
        -17.984878540039062
      ],
      "min": [
        -103.7954330444336,
        -220.6964569091797,
        -159.64463806152344
      ]
    },
    {
      "bufferView": 1,
      "componentType": 5126,
      "count": 46500,
      "type": "VEC2",
      "max": [
        0.9905698895454407,
        0.9895297288894653
      ],
      "min": [
        0.00552133284509182,
        0.6676933765411377
      ]
    },
    {
      "bufferView": 2,
      "componentType": 5126,
      "count": 5184,
      "type": "VEC3",
      "max": [
        93.54324340820312,
        198.06556701660156,
        1.3655743202889425E-12
      ],
      "min": [
        66.473388671875,
        125.77791595458984,
        -72.28779602050781
      ]
    },
    {
      "bufferView": 3,
      "componentType": 5126,
      "count": 5184,
      "type": "VEC2",
      "max": [
        0.2104765623807907,
        0.9832882881164551
      ],
      "min": [
        0.08219972252845764,
        0.8199968338012695
      ]
    },
    {
      "bufferView": 4,
      "componentType": 5126,
      "count": 5184,
      "type": "VEC3",
      "max": [
        93.54324340820312,
        198.06556701660156,
        1.3655743202889425E-12
      ],
      "min": [
        66.473388671875,
        125.77791595458984,
        -72.28779602050781
      ]
    },
    {
      "bufferView": 5,
      "componentType": 5126,
      "count": 5184,
      "type": "VEC2",
      "max": [
        0.2104765623807907,
        0.9832882881164551
      ],
      "min": [
        0.08219972252845764,
        0.8199968338012695
      ]
    },
    {
      "bufferView": 6,
      "componentType": 5126,
      "count": 5184,
      "type": "VEC3",
      "max": [
        93.54324340820312,
        198.06556701660156,
        1.3655743202889425E-12
      ],
      "min": [
        66.473388671875,
        125.77791595458984,
        -72.28779602050781
      ]
    },
    {
      "bufferView": 7,
      "componentType": 5126,
      "count": 5184,
      "type": "VEC2",
      "max": [
        0.2104765623807907,
        0.9832882881164551
      ],
      "min": [
        0.08219972252845764,
        0.8199968338012695
      ]
    },
    {
      "bufferView": 8,
      "componentType": 5126,
      "count": 5184,
      "type": "VEC3",
      "max": [
        93.54324340820312,
        198.06556701660156,
        1.3655743202889425E-12
      ],
      "min": [
        66.473388671875,
        125.77791595458984,
        -72.28779602050781
      ]
    },
    {
      "bufferView": 9,
      "componentType": 5126,
      "count": 5184,
      "type": "VEC2",
      "max": [
        0.2104765623807907,
        0.9832882881164551
      ],
      "min": [
        0.08219972252845764,
        0.8199968338012695
      ]
    }
  ],
  "asset": {
    "generator": "Cout970\u0027s Modeler glTF v2 Exporter",
    "version": "2.0"
  },
  "buffers": [
    {
      "uri": "car.bin",
      "byteLength": 1344720
    }
  ],
  "bufferViews": [
    {
      "buffer": 0,
      "byteLength": 558000,
      "target": 34962
    },
    {
      "buffer": 0,
      "byteOffset": 558000,
      "byteLength": 372000,
      "target": 34962
    },
    {
      "buffer": 0,
      "byteOffset": 930000,
      "byteLength": 62208,
      "target": 34962
    },
    {
      "buffer": 0,
      "byteOffset": 992208,
      "byteLength": 41472,
      "target": 34962
    },
    {
      "buffer": 0,
      "byteOffset": 1033680,
      "byteLength": 62208,
      "target": 34962
    },
    {
      "buffer": 0,
      "byteOffset": 1095888,
      "byteLength": 41472,
      "target": 34962
    },
    {
      "buffer": 0,
      "byteOffset": 1137360,
      "byteLength": 62208,
      "target": 34962
    },
    {
      "buffer": 0,
      "byteOffset": 1199568,
      "byteLength": 41472,
      "target": 34962
    },
    {
      "buffer": 0,
      "byteOffset": 1241040,
      "byteLength": 62208,
      "target": 34962
    },
    {
      "buffer": 0,
      "byteOffset": 1303248,
      "byteLength": 41472,
      "target": 34962
    }
  ],
  "images": [
    {
      "uri": "car_veh1.png"
    }
  ],
  "materials": [
    {
      "pbrMetallicRoughness": {
        "baseColorFactor": [
          1.0,
          1.0,
          1.0,
          1.0
        ],
        "baseColorTexture": {
          "index": 0,
          "texCoord": 0
        },
        "metallicFactor": 1.0,
        "roughnessFactor": 1.0
      },
      "alphaMode": "MASK",
      "alphaCutoff": 0.5,
      "doubleSided": false
    }
  ],
  "meshes": [
    {
      "primitives": [
        {
          "attributes": {
            "POSITION": 0,
            "TEXCOORD_0": 1
          },
          "material": 0,
          "mode": 4
        }
      ]
    },
    {
      "primitives": [
        {
          "attributes": {
            "POSITION": 2,
            "TEXCOORD_0": 3
          },
          "material": 0,
          "mode": 4
        }
      ]
    },
    {
      "primitives": [
        {
          "attributes": {
            "POSITION": 4,
            "TEXCOORD_0": 5
          },
          "material": 0,
          "mode": 4
        }
      ]
    },
    {
      "primitives": [
        {
          "attributes": {
            "POSITION": 6,
            "TEXCOORD_0": 7
          },
          "material": 0,
          "mode": 4
        }
      ]
    },
    {
      "primitives": [
        {
          "attributes": {
            "POSITION": 8,
            "TEXCOORD_0": 9
          },
          "material": 0,
          "mode": 4
        }
      ]
    }
  ],
  "nodes": [
    {
      "mesh": 0,
      "rotation": [
        0.7071068,
        0.0,
        0.0,
        0.7071067
      ],
      "scale": [
        0.013000000268220901,
        0.013000000268220901,
        0.013000000268220901
      ],
      "translation": [
        0.0625,
        -0.0625,
        -0.0625
      ],
      "name": "SM_Veh_Car_01"
    },
    {
      "mesh": 1,
      "rotation": [
        0.09801714,
        0.0,
        0.0,
        0.9951847
      ],
      "scale": [
        0.013000000268220901,
        0.013000000268220901,
        0.013000000268220901
      ],
      "translation": [
        0.0625,
        -1.73872048038961,
        2.0803087206513506
      ],
      "name": "SM_Veh_Car_01_Wheel_fl"
    },
    {
      "mesh": 2,
      "rotation": [
        0.09801714,
        0.0,
        0.0,
        0.9951847
      ],
      "scale": [
        0.013000000268220901,
        0.013000000268220901,
        0.013000000268220901
      ],
      "translation": [
        0.0625,
        -1.7387204803896104,
        -1.4821912793486494
      ],
      "name": "SM_Veh_Car_01_Wheel_fl"
    },
    {
      "mesh": 3,
      "rotation": [
        6.330424E-10,
        0.9951847,
        0.09801714,
        6.427387E-9
      ],
      "scale": [
        0.013000000268220901,
        0.013000000268220901,
        0.013000000268220901
      ],
      "translation": [
        0.08913436443233752,
        -1.5553860005564262,
        1.187987533876109
      ],
      "name": "SM_Veh_Car_01_Wheel_fl"
    },
    {
      "mesh": 4,
      "rotation": [
        6.330424E-10,
        0.9951847,
        0.09801714,
        6.427387E-9
      ],
      "scale": [
        0.013000000268220901,
        0.013000000268220901,
        0.013000000268220901
      ],
      "translation": [
        0.02663436443233752,
        -1.5553860005564246,
        -2.3745124661238908
      ],
      "name": "SM_Veh_Car_01_Wheel_fl"
    },
    {
      "children": [
        0,
        1,
        2,
        3,
        4
      ],
      "name": "root"
    }
  ],
  "samplers": [
    {
      "magFilter": 9728,
      "minFilter": 9728,
      "wrapS": 10497,
      "wrapT": 10497,
      "name": "pixelated"
    }
  ],
  "scene": 0,
  "scenes": [
    {
      "nodes": [
        5
      ]
    }
  ],
  "textures": [
    {
      "sampler": 0,
      "source": 0
    }
  ]
}