{
  "accessors": [
    {
      "bufferView": 0,
      "componentType": 5126,
      "count": 25536,
      "type": "VEC3",
      "max": [
        118.117431640625,
        68.45489501953125,
        0.0
      ],
      "min": [
        -118.117431640625,
        -130.83831787109375,
        -1274.136474609375
      ]
    },
    {
      "bufferView": 1,
      "componentType": 5126,
      "count": 25536,
      "type": "VEC2",
      "max": [
        0.13531799614429474,
        0.7733789682388306
      ],
      "min": [
        0.10199400037527084,
        0.6172839999198914
      ]
    }
  ],
  "asset": {
    "generator": "Cout970\u0027s Modeler glTF v2 Exporter",
    "version": "2.0"
  },
  "buffers": [
    {
      "uri": "radiotower.bin",
      "byteLength": 510720
    }
  ],
  "bufferViews": [
    {
      "buffer": 0,
      "byteLength": 306432,
      "target": 34962
    },
    {
      "buffer": 0,
      "byteOffset": 306432,
      "byteLength": 204288,
      "target": 34962
    }
  ],
  "images": [
    {
      "uri": "radiotower_tex2.png"
    }
  ],
  "materials": [
    {
      "pbrMetallicRoughness": {
        "baseColorFactor": [
          1.0,
          1.0,
          1.0,
          1.0
        ],
        "baseColorTexture": {
          "index": 0,
          "texCoord": 0
        },
        "metallicFactor": 1.0,
        "roughnessFactor": 1.0
      },
      "alphaMode": "MASK",
      "alphaCutoff": 0.5,
      "doubleSided": false
    }
  ],
  "meshes": [
    {
      "primitives": [
        {
          "attributes": {
            "POSITION": 0,
            "TEXCOORD_0": 1
          },
          "material": 0,
          "mode": 4
        }
      ]
    }
  ],
  "nodes": [
    {
      "mesh": 0,
      "rotation": [
        0.7071068,
        0.0,
        0.0,
        0.7071067
      ],
      "scale": [
        0.009999999776482582,
        0.009999999776482582,
        0.009999999776482582
      ],
      "translation": [
        0.5,
        0.0,
        0.5
      ],
      "name": "SM_Prop_RadioTower_01"
    },
    {
      "children": [
        0
      ],
      "name": "root"
    }
  ],
  "samplers": [
    {
      "magFilter": 9728,
      "minFilter": 9728,
      "wrapS": 10497,
      "wrapT": 10497,
      "name": "pixelated"
    }
  ],
  "scene": 0,
  "scenes": [
    {
      "nodes": [
        1
      ]
    }
  ],
  "textures": [
    {
      "sampler": 0,
      "source": 0
    }
  ]
}